{
  "accessors": [
    {
      "bufferView": 2,
      "componentType": 5126,
      "count": 7316,
      "max": [
        12.447229385375977,
        11.683103561401367,
        28.64421844482422
      ],
      "min": [
        -10.170970916748047,
        -9.398810386657715,
        -0.3015719950199127
      ],
      "type": "VEC3"
    },
    {
      "bufferView": 2,
      "byteOffset": 87792,
      "componentType": 5126,
      "count": 7316,
      "max": [
        0.9993692636489868,
        0.9998748898506165,
        0.9993888735771179
      ],
      "min": [
        -0.9988746643066406,
        -0.9999972581863403,
        -0.9999991059303284
      ],
      "type": "VEC3"
    },
    {
      "bufferView": 1,
      "componentType": 5126,
      "count": 7316,
      "max": [
        0.9930750131607056,
        0.9954929947853088
      ],
      "min": [
        0.0021550001110881567,
        0.003295999951660633
      ],
      "type": "VEC2"
    },
    {
      "bufferView": 0,
      "componentType": 5125,
      "count": 29868,
      "type": "SCALAR"
    },
    {
      "bufferView": 2,
      "byteOffset": 175584,
      "componentType": 5126,
      "count": 5539,
      "max": [
        13.023638725280762,
        11.971147537231445,
        28.972925186157227
      ],
      "min": [
        -10.502482414245605,
        -9.70370101928711,
        -0.5824980139732361
      ],
      "type": "VEC3"
    },
    {
      "bufferView": 2,
      "byteOffset": 242052,
      "componentType": 5126,
      "count": 5539,
      "max": [
        0.9988747835159302,
        0.9999972581863403,
        0.9999991059303284
      ],
      "min": [
        -0.9988747835159302,
        -0.9998748898506165,
        -0.9993683695793152
      ],
      "type": "VEC3"
    },
    {
      "bufferView": 1,
      "byteOffset": 58528,
      "componentType": 5126,
      "count": 5539,
      "max": [
        0.996146023273468,
        0.9968609809875488
      ],
      "min": [
        0.004931999836117029,
        0.004532999824732542
      ],
      "type": "VEC2"
    },
    {
      "bufferView": 0,
      "byteOffset": 119472,
      "componentType": 5125,
      "count": 27528,
      "type": "SCALAR"
    },
    {
      "bufferView": 2,
      "byteOffset": 308520,
      "componentType": 5126,
      "count": 784,
      "max": [
        25.391590118408203,
        27.27257537841797,
        25.344221115112305
      ],
      "min": [
        -25.391590118408203,
        -23.483692169189453,
        -1.2166639566421509
      ],
      "type": "VEC3"
    },
    {
      "bufferView": 2,
      "byteOffset": 317928,
      "componentType": 5126,
      "count": 784,
      "max": [
        0.9991156458854675,
        0.9984735250473022,
        1.0
      ],
      "min": [
        -0.9994316697120667,
        -0.9986293315887451,
        -1.0
      ],
      "type": "VEC3"
    },
    {
      "bufferView": 1,
      "byteOffset": 102840,
      "componentType": 5126,
      "count": 784,
      "max": [
        0.9240130186080933,
        0.9904909729957581
      ],
      "min": [
        0.007290000095963478,
        0.028908999636769295
      ],
      "type": "VEC2"
    },
    {
      "bufferView": 0,
      "byteOffset": 229584,
      "componentType": 5125,
      "count": 4038,
      "type": "SCALAR"
    }
  ],
  "asset": {
    "extras": {
      "author": "MariaDiazLabella (https://sketchfab.com/ItsMira)",
      "license": "CC-BY-4.0 (http://creativecommons.org/licenses/by/4.0/)",
      "source": "https://sketchfab.com/3d-models/cute-christmas-frog-064849621a37427da7b8f83a6abb699e",
      "title": "Cute Christmas Frog"
    },
    "generator": "Sketchfab-12.31.0",
    "version": "2.0"
  },
  "bufferViews": [
    {
      "buffer": 0,
      "byteLength": 245736,
      "name": "floatBufferViews",
      "target": 34963
    },
    {
      "buffer": 0,
      "byteLength": 109112,
      "byteOffset": 245736,
      "byteStride": 8,
      "name": "floatBufferViews",
      "target": 34962
    },
    {
      "buffer": 0,
      "byteLength": 327336,
      "byteOffset": 354848,
      "byteStride": 12,
      "name": "floatBufferViews",
      "target": 34962
    }
  ],
  "buffers": [
    {
      "byteLength": 682184,
      "uri": "scene.bin"
    }
  ],
  "extensionsUsed": [
    "KHR_materials_unlit"
  ],
  "images": [
    {
      "uri": "textures/initialShadingGroup_baseColor.png"
    },
    {
      "uri": "textures/lambert5SG_baseColor.png"
    },
    {
      "uri": "textures/lambert6SG_baseColor.png"
    },
    {
      "uri": "textures/lambert6SG_emissive.png"
    }
  ],
  "materials": [
    {
      "emissiveFactor": [
        1.0,
        1.0,
        1.0
      ],
      "emissiveTexture": {
        "index": 0
      },
      "extensions": {
        "KHR_materials_unlit": {}
      },
      "name": "initialShadingGroup",
      "pbrMetallicRoughness": {
        "baseColorFactor": [
          0.0,
          0.0,
          0.0,
          1.0
        ],
        "baseColorTexture": {
          "index": 0
        },
        "metallicFactor": 0.0
      }
    },
    {
      "emissiveFactor": [
        1.0,
        1.0,
        1.0
      ],
      "emissiveTexture": {
        "index": 1
      },
      "extensions": {
        "KHR_materials_unlit": {}
      },
      "name": "lambert5SG",
      "pbrMetallicRoughness": {
        "baseColorTexture": {
          "index": 1
        },
        "metallicFactor": 0.0
      }
    },
    {
      "alphaMode": "BLEND",
      "doubleSided": true,
      "emissiveFactor": [
        1.0,
        1.0,
        1.0
      ],
      "emissiveTexture": {
        "index": 3
      },
      "extensions": {
        "KHR_materials_unlit": {}
      },
      "name": "lambert6SG",
      "pbrMetallicRoughness": {
        "baseColorTexture": {
          "index": 2
        },
        "metallicFactor": 0.0
      }
    }
  ],
  "meshes": [
    {
      "name": "Object_0",
      "primitives": [
        {
          "attributes": {
            "NORMAL": 1,
            "POSITION": 0,
            "TEXCOORD_0": 2
          },
          "indices": 3,
          "material": 0,
          "mode": 4
        }
      ]
    },
    {
      "name": "Object_1",
      "primitives": [
        {
          "attributes": {
            "NORMAL": 5,
            "POSITION": 4,
            "TEXCOORD_0": 6
          },
          "indices": 7,
          "material": 1,
          "mode": 4
        }
      ]
    },
    {
      "name": "Object_2",
      "primitives": [
        {
          "attributes": {
            "NORMAL": 9,
            "POSITION": 8,
            "TEXCOORD_0": 10
          },
          "indices": 11,
          "material": 2,
          "mode": 4
        }
      ]
    }
  ],
  "nodes": [
    {
      "children": [
        1
      ],
      "matrix": [
        1.0,
        0.0,
        0.0,
        0.0,
        0.0,
        2.220446049250313e-16,
        -1.0,
        0.0,
        0.0,
        1.0,
        2.220446049250313e-16,
        0.0,
        0.0,
        0.0,
        0.0,
        1.0
      ],
      "name": "Sketchfab_model"
    },
    {
      "children": [
        2,
        3,
        4
      ],
      "name": "cruak.obj.cleaner.materialmerger.gles"
    },
    {
      "mesh": 0,
      "name": "Object_2"
    },
    {
      "mesh": 1,
      "name": "Object_3"
    },
    {
      "mesh": 2,
      "name": "Object_4"
    }
  ],
  "samplers": [
    {
      "magFilter": 9729,
      "minFilter": 9987,
      "wrapS": 10497,
      "wrapT": 10497
    }
  ],
  "scene": 0,
  "scenes": [
    {
      "name": "Sketchfab_Scene",
      "nodes": [
        0
      ]
    }
  ],
  "textures": [
    {
      "sampler": 0,
      "source": 0
    },
    {
      "sampler": 0,
      "source": 1
    },
    {
      "sampler": 0,
      "source": 2
    },
    {
      "sampler": 0,
      "source": 3
    }
  ]
}
